<svg width="34" height="34" viewBox="0 0 34 34" fill="none" xmlns="http://www.w3.org/2000/svg">
<path fill-rule="evenodd" clip-rule="evenodd" d="M8.5573 8.87496C8.16672 9.26543 8.16672 9.89851 8.5573 10.289L15.9694 17.699L8.55685 25.1095C8.16627 25.5 8.16627 26.1331 8.55685 26.5235L8.87708 26.8437C9.26766 27.2342 9.90092 27.2342 10.2915 26.8437L17.7041 19.4332L25.1165 26.8436C25.5071 27.2341 26.1404 27.2341 26.531 26.8436L26.8512 26.5235C27.2418 26.133 27.2418 25.4999 26.8512 25.1095L19.4387 17.699L26.8507 10.289C27.2413 9.89858 27.2413 9.2655 26.8507 8.87503L26.5305 8.55488C26.1399 8.16441 25.5067 8.16441 25.1161 8.55488L17.7041 15.9649L10.2919 8.55482C9.90136 8.16435 9.26811 8.16435 8.87753 8.55482L8.5573 8.87496Z" fill="#B0B6C7"/>
</svg>
