<svg width="256" height="256" viewBox="0 0 256 256" fill="none" xmlns="http://www.w3.org/2000/svg">
<rect width="256" height="256" fill="url(#paint0_linear)"/>
<path fill-rule="evenodd" clip-rule="evenodd" d="M110.25 104.333C106.982 104.333 104.333 106.982 104.333 110.25V145.75C104.333 149.018 106.982 151.667 110.25 151.667H145.75C149.018 151.667 151.667 149.018 151.667 145.75V110.25C151.667 106.982 149.018 104.333 145.75 104.333H110.25ZM116.167 139.833V116.167H139.833V139.833H116.167Z" fill="white"/>
<path fill-rule="evenodd" clip-rule="evenodd" d="M110.25 57C113.518 57 116.167 59.649 116.167 62.9167V74.75H139.833V62.9167C139.833 59.649 142.482 57 145.75 57C149.018 57 151.667 59.649 151.667 62.9167V74.75H163.5C173.303 74.75 181.25 82.6969 181.25 92.5V104.333H193.083C196.351 104.333 199 106.982 199 110.25C199 113.518 196.351 116.167 193.083 116.167H181.25V133.917H193.083C196.351 133.917 199 136.566 199 139.833C199 143.101 196.351 145.75 193.083 145.75H181.25V163.5C181.25 173.303 173.303 181.25 163.5 181.25H151.667V193.083C151.667 196.351 149.018 199 145.75 199C142.482 199 139.833 196.351 139.833 193.083V181.25H116.167V193.083C116.167 196.351 113.518 199 110.25 199C106.982 199 104.333 196.351 104.333 193.083V181.25H92.5C82.6969 181.25 74.75 173.303 74.75 163.5V145.75H62.9167C59.649 145.75 57 143.101 57 139.833C57 136.566 59.649 133.917 62.9167 133.917H74.75V116.167H62.9167C59.649 116.167 57 113.518 57 110.25C57 106.982 59.649 104.333 62.9167 104.333H74.75V92.5C74.75 82.6969 82.6969 74.75 92.5 74.75H104.333V62.9167C104.333 59.649 106.982 57 110.25 57ZM86.5833 163.5C86.5833 166.768 89.2323 169.417 92.5 169.417H163.5C166.768 169.417 169.417 166.768 169.417 163.5V92.5C169.417 89.2323 166.768 86.5833 163.5 86.5833H92.5C89.2323 86.5833 86.5833 89.2323 86.5833 92.5V163.5Z" fill="white"/>
<defs>
<linearGradient id="paint0_linear" x1="128" y1="0" x2="128" y2="256" gradientUnits="userSpaceOnUse">
<stop stop-color="#2C3A89"/>
<stop offset="1" stop-color="#181A31"/>
</linearGradient>
</defs>
</svg>
