<svg width="256" height="256" viewBox="0 0 256 256" fill="none" xmlns="http://www.w3.org/2000/svg">
<path fill-rule="evenodd" clip-rule="evenodd" d="M0 0H256V256H0V0Z" fill="url(#paint0_linear)"/>
<path d="M127.873 59L144.779 70.3746M205.981 175.231L202.56 195.889L205.981 175.231ZM50.1067 176.077L62.7712 188.032L50.1067 176.077ZM144.659 70.4857L62.6857 187.87C62.6756 187.881 62.6691 187.895 62.6669 187.91C62.6647 187.925 62.6669 187.94 62.6733 187.954C62.6797 187.967 62.6899 187.979 62.7028 187.987C62.7156 187.995 62.7305 187.999 62.7456 187.998L202.483 196C202.497 196.001 202.511 195.999 202.523 195.993C202.536 195.987 202.547 195.978 202.555 195.967C202.563 195.956 202.567 195.942 202.568 195.928C202.569 195.915 202.566 195.901 202.56 195.889L144.779 70.5027C144.765 70.4846 144.745 70.4726 144.722 70.4694C144.7 70.4662 144.677 70.4721 144.659 70.4857V70.4857ZM127.779 59.1366L50.0126 175.915C50.0039 175.931 49.9996 175.95 50 175.968C50.0004 175.987 50.0056 176.005 50.015 176.022C50.0243 176.038 50.0377 176.051 50.0537 176.061C50.0697 176.071 50.0879 176.076 50.1067 176.077L205.895 175.394C205.914 175.394 205.933 175.389 205.949 175.38C205.966 175.37 205.979 175.356 205.988 175.339C205.997 175.322 206.001 175.303 206 175.284C205.998 175.265 205.992 175.247 205.981 175.231L127.958 59.1366C127.949 59.1206 127.936 59.1073 127.921 59.098C127.905 59.0887 127.887 59.0838 127.868 59.0838C127.85 59.0838 127.832 59.0887 127.816 59.098C127.8 59.1073 127.787 59.1206 127.779 59.1366Z" stroke="#1D1D1B" stroke-width="5" stroke-miterlimit="10"/>
<defs>
<linearGradient id="paint0_linear" x1="37.4885" y1="218.512" x2="218.512" y2="37.4885" gradientUnits="userSpaceOnUse">
<stop stop-color="#C2FDE4"/>
<stop offset="1" stop-color="#CDC6E9"/>
</linearGradient>
</defs>
</svg>
