<svg width="256" height="256" viewBox="0 0 256 256" fill="none" xmlns="http://www.w3.org/2000/svg">
<rect width="256" height="256" fill="url(#paint0_linear)"/>
<path d="M187.845 64.5845C188.682 66.5604 189.019 68.1219 188.972 68.9824C185.726 67.0267 180.844 65.3628 178.18 64.8864C176.446 64.5761 182.122 63.1991 187.845 64.5845ZM192.561 137.295C193.564 137.083 194.574 136.88 195.584 136.681C196.64 136.474 197.699 136.275 198.761 136.087C197.908 135.55 197.053 135.02 196.193 134.495C185.263 127.847 173.613 122.199 162.1 116.733C154.836 113.284 147.436 109.856 139.901 106.765C146.475 98.0966 154.89 90.74 163.883 84.4368C163.892 84.4318 163.928 84.4066 163.984 84.3664C165.953 87.0534 168.442 88.8816 169.69 89.5693C172.129 90.9128 175.201 92.1691 178.026 92.5532C183.579 93.308 188.167 93.1922 193.241 92.3167C193.699 92.2379 194.158 92.1825 194.618 92.107C197.872 91.5619 199.953 91.4797 201.858 91.4445C204.383 91.3975 205.634 91.9309 205.931 92.0097C206.833 92.2429 207.6 92.6287 208.024 93.1453C208.519 93.7759 209.049 94.3713 209.614 94.9148C211.313 96.6055 213.001 97.5414 215.446 97.8098C218.596 98.1553 220.825 96.9242 222.402 94.8779C223.147 93.9135 222.788 92.3955 222.707 92.0986C222.293 90.5773 221.338 88.365 220.647 86.3036C220.468 85.7719 219.601 84.1349 218.556 83.0246C218.212 82.6572 217.865 82.2899 217.518 81.9243C215.896 80.2084 214.262 78.506 212.642 76.7918C206.176 69.9569 199.165 63.6637 191.939 57.6473C191.189 57.0234 190.44 56.3977 189.688 55.7738C189.143 55.3209 188.596 54.8714 188.051 54.4185C187.773 54.1904 187.496 53.9606 187.216 53.7325C186.629 53.2495 186.04 52.7681 185.448 52.2884C185.215 52.1005 184.982 51.9127 184.747 51.7248C184.38 51.4279 183.539 50.7201 182.833 50.1549C185.176 47.8168 187.068 46.3626 190.426 44.1637C190.908 43.8483 193.501 42.4646 193.408 42.114C193.353 41.901 189.096 41.9496 184.217 42.5786C182.503 42.7983 172.895 44.2173 166.298 45.6548C159.276 47.1844 151.86 49.323 145.031 51.4732C125.304 57.6842 106.467 66.1008 89.2157 77.5398C79.303 84.1131 70.0226 91.3673 61.0659 99.1835C56.8912 102.825 52.7433 106.525 48.6926 110.327C48.0569 110.923 47.428 111.523 46.799 112.125C47.6611 112.286 48.5232 112.456 49.3837 112.632C56.5171 114.098 63.5718 116.055 70.4319 118.016C78.8216 120.413 87.3087 122.999 95.5156 126.171C90.8376 130.621 86.2754 135.178 81.933 140.002C73.7546 149.084 66.1296 158.678 59.0163 168.614C49.746 181.56 41.8309 195.52 34.9339 209.907C34.2798 211.268 33.634 212.633 33 214C34.2764 212.979 35.5595 211.967 36.8527 210.962C48.0217 202.303 59.7962 194.294 71.554 186.556C88.097 175.669 105.851 166.676 124.274 159.438C146.486 150.713 169.168 142.249 192.561 137.295Z" fill="white"/>
<defs>
<linearGradient id="paint0_linear" x1="256" y1="0" x2="0" y2="256" gradientUnits="userSpaceOnUse">
<stop stop-color="#534A7B"/>
<stop offset="1"/>
</linearGradient>
</defs>
</svg>
