<svg width="256" height="256" viewBox="0 0 256 256" fill="none" xmlns="http://www.w3.org/2000/svg">
<rect width="256" height="256" fill="url(#paint0_linear)"/>
<path d="M169.593 137.897L120.254 209.862C119.45 211.04 117.848 211.354 116.659 210.567C116.072 210.18 115.667 209.572 115.534 208.882C115.402 208.193 115.553 207.478 115.954 206.901L165.293 134.936C166.111 133.749 167.736 133.449 168.923 134.267C170.111 135.084 170.41 136.709 169.593 137.897Z" fill="#F5F5F5"/>
<path d="M163.108 125.069L114.897 195.554C114.079 196.741 112.454 197.041 111.267 196.223C110.079 195.406 109.78 193.781 110.597 192.593L158.809 122.108C159.626 120.921 161.251 120.621 162.439 121.439C163.626 122.256 163.926 123.881 163.108 125.069Z" fill="#F5F5F5"/>
<path d="M148.447 48.0992L92.5529 129.791H144.994L141.469 135.007H86.6322H86.1388C84.9602 134.203 84.6462 132.602 85.434 131.412L144.007 45.1388C144.811 43.9602 146.412 43.6462 147.602 44.434C148.838 45.2189 149.215 46.8517 148.447 48.0992Z" fill="#F5F5F5"/>
<path d="M153.663 63.7467L116.8 117.668H153.311L149.716 122.884H106.932L110.456 117.668L149.364 60.8568C150.224 59.852 151.701 59.6508 152.799 60.3889C153.897 61.1269 154.269 62.5703 153.663 63.7467Z" fill="#F5F5F5"/>
<defs>
<linearGradient id="paint0_linear" x1="256" y1="0" x2="0" y2="256" gradientUnits="userSpaceOnUse">
<stop stop-color="#AD5389"/>
<stop offset="1" stop-color="#3C1053"/>
</linearGradient>
</defs>
</svg>
