<?xml version="1.0" encoding="UTF-8"?>
<svg width="190px" height="189px" viewBox="0 0 190 189" version="1.1" xmlns="http://www.w3.org/2000/svg" xmlns:xlink="http://www.w3.org/1999/xlink">
    <title>Artboard Copy 3</title>
    <defs>
        <linearGradient x1="50%" y1="2.83824061%" x2="50%" y2="100%" id="linearGradient-1">
            <stop stop-color="#174697" offset="0%"></stop>
            <stop stop-color="#0C2550" offset="100%"></stop>
        </linearGradient>
        <linearGradient x1="50%" y1="0%" x2="50%" y2="97.8843027%" id="linearGradient-2">
            <stop stop-color="#3F78DC" offset="0%"></stop>
            <stop stop-color="#2F5FB3" offset="100%"></stop>
        </linearGradient>
        <linearGradient x1="50%" y1="2.72534321%" x2="50%" y2="100%" id="linearGradient-3">
            <stop stop-color="#8BD7F9" offset="0%"></stop>
            <stop stop-color="#68BBE1" offset="100%"></stop>
        </linearGradient>
    </defs>
    <g id="Artboard-Copy-3" stroke="none" stroke-width="1" fill="none" fill-rule="evenodd">
        <g id="Group">
            <g id="Group-Copy">
                <polygon id="Rectangle-Copy" fill="url(#linearGradient-1)" points="0 0.117260821 189.980433 0.117260821 189.980433 126.970453 0 126.970453"></polygon>
                <path d="M43.5860484,43.7218987 L146.394384,43.7218987 C161.550203,43.7218987 167.046069,45.2999341 172.58681,48.2631546 C178.12755,51.2263752 182.475956,55.574781 185.439177,61.1155217 C188.402397,66.6562625 189.980433,72.1521285 189.980433,87.3079471 L189.980433,139.750951 L189.980433,139.750951 L0,139.750951 L-2.45338421e-15,87.3079471 C1.42548688e-15,72.1521285 1.57803539,66.6562625 4.54125596,61.1155217 C7.50447654,55.574781 11.8528823,51.2263752 17.393623,48.2631546 C22.9343638,45.2999341 28.4302298,43.7218987 43.5860484,43.7218987 Z" id="Rectangle-Copy-2" fill="url(#linearGradient-2)"></path>
                <path d="M43.5860484,89.8807831 L146.394384,89.8807831 C161.550203,89.8807831 167.046069,91.4588185 172.58681,94.4220391 C178.12755,97.3852596 182.475956,101.733665 185.439177,107.274406 C188.402397,112.815147 189.980433,118.311013 189.980433,133.466832 L189.980433,189.496399 L189.980433,189.496399 L0,189.496399 L1.17395235e-15,133.466832 C-6.82100122e-16,118.311013 1.57803539,112.815147 4.54125596,107.274406 C7.50447654,101.733665 11.8528823,97.3852596 17.393623,94.4220391 C22.9343638,91.4588185 28.4302298,89.8807831 43.5860484,89.8807831 Z" id="Rectangle-Copy-3" fill="url(#linearGradient-3)"></path>
            </g>
            <path d="M146.814719,112.448014 C146.212553,112.448014 145.610386,112.723869 145.094243,113.183627 L115.932184,141.044973 C115.15797,141.780587 114.899899,142.975958 115.243994,144.079378 C115.588089,145.182797 116.620375,145.826459 117.65266,145.826459 L127.287322,145.826459 L118.684945,167.986804 C118.254826,169.182175 118.598921,170.56145 119.545183,171.297063 C119.975302,171.664869 120.491444,171.756821 121.007587,171.756821 C121.609753,171.756821 122.297944,171.480966 122.728062,171.021208 L152.234217,142.240345 C152.750359,141.780587 153.094454,140.953022 153.094454,140.125457 C153.094454,138.562279 151.976145,137.366908 150.513741,137.366908 L150.513741,137.366908 L141.051126,137.366908 L149.223385,116.218031 C149.653503,115.02266 149.309408,113.643385 148.363147,112.907772 C147.847004,112.631917 147.330862,112.448014 146.814719,112.448014 L146.814719,112.448014 Z" id="Shape" fill="#FFFFFF" fill-rule="nonzero"></path>
        </g>
    </g>
</svg>