<svg width="256" height="256" viewBox="0 0 256 256" fill="none" xmlns="http://www.w3.org/2000/svg">
<rect width="256" height="256" fill="#242425"/>
<path d="M204.135 120.597C200.946 120.597 198.821 118.727 198.821 114.89V92.8464C198.821 78.7741 193.023 71 178.047 71H171.09V85.8594H173.216C179.11 85.8594 181.912 89.1069 181.912 94.9129V114.398C181.912 122.861 184.424 126.305 189.932 128.076C184.424 129.749 181.912 133.292 181.912 141.755V156.221C181.912 160.255 181.912 164.192 180.849 168.226C179.786 171.966 178.047 175.508 175.632 178.559C174.279 180.331 172.733 181.806 170.994 183.184V185.152H177.95C192.927 185.152 198.724 177.378 198.724 163.306V141.263C198.724 137.326 200.753 135.555 204.038 135.555H208V120.696H204.135V120.597Z" fill="white"/>
<path d="M156.794 93.3739H135.344C134.861 93.3739 134.475 92.9802 134.475 92.4882V90.8154C134.475 90.3233 134.861 89.9297 135.344 89.9297H156.891C157.374 89.9297 157.76 90.3233 157.76 90.8154V92.4882C157.76 92.9802 157.277 93.3739 156.794 93.3739Z" fill="white"/>
<path d="M160.463 114.854H144.81C144.327 114.854 143.94 114.461 143.94 113.969V112.296C143.94 111.804 144.327 111.41 144.81 111.41H160.463C160.946 111.41 161.332 111.804 161.332 112.296V113.969C161.332 114.362 160.946 114.854 160.463 114.854Z" fill="white"/>
<path d="M166.649 103.932H135.344C134.861 103.932 134.475 103.539 134.475 103.047V101.374C134.475 100.882 134.861 100.488 135.344 100.488H166.553C167.036 100.488 167.422 100.882 167.422 101.374V103.047C167.422 103.44 167.132 103.932 166.649 103.932Z" fill="white"/>
<path d="M110.518 98.2588C112.643 98.2588 114.769 98.4556 116.798 98.9477V94.9129C116.798 89.2052 119.697 85.8594 125.494 85.8594H127.62V71H120.663C105.686 71 99.8893 78.7741 99.8893 92.8464V100.128C103.271 98.9477 106.846 98.2588 110.518 98.2588Z" fill="white"/>
<path d="M173.221 151.788C171.675 139.29 162.206 128.859 150.032 126.497C146.65 125.809 143.268 125.71 139.984 126.3C139.887 126.3 139.887 126.202 139.79 126.202C134.476 114.885 123.075 107.406 110.707 107.406C98.3397 107.406 87.0351 114.689 81.6242 126.005C81.5276 126.005 81.5276 126.104 81.431 126.104C77.9527 125.71 74.4743 125.907 70.9959 126.792C59.0149 129.745 49.9325 139.979 48.2899 152.378C48.0967 153.657 48 154.937 48 156.118C48 159.857 50.5122 163.301 54.1838 163.793C58.725 164.482 62.6865 160.94 62.5898 156.413C62.5898 155.724 62.5898 154.937 62.6865 154.248C63.4595 147.95 68.1939 142.636 74.3775 141.16C76.3101 140.668 78.2425 140.57 80.0783 140.865C85.9722 141.652 91.7694 138.601 94.2816 133.287C96.1176 129.351 99.0162 125.907 102.881 124.037C107.132 121.97 111.963 121.675 116.408 123.25C121.046 124.923 124.524 128.465 126.65 132.894C128.872 137.224 129.935 140.274 134.669 140.865C136.602 141.16 142.013 141.062 144.042 140.963C148.003 140.963 151.965 142.341 154.767 145.195C156.602 147.163 157.955 149.623 158.535 152.378C159.404 156.807 158.342 161.235 155.733 164.581C153.897 166.943 151.385 168.714 148.583 169.501C147.23 169.895 145.877 169.993 144.525 169.993H123.171C118.92 169.993 115.538 166.549 115.538 162.219V133.386C115.538 132.205 114.572 131.221 113.413 131.221H110.417C104.523 131.319 99.789 138.011 99.789 145.096V170.977C99.789 178.653 105.876 184.853 113.413 184.853C113.413 184.853 146.94 184.754 147.423 184.754C155.153 183.967 162.303 179.932 167.134 173.733C171.965 167.73 174.187 159.857 173.221 151.788Z" fill="white"/>
</svg>
