<svg width="256" height="256" viewBox="0 0 256 256" fill="none" xmlns="http://www.w3.org/2000/svg">
<path fill-rule="evenodd" clip-rule="evenodd" d="M0 0H256V256H0V0Z" fill="url(#paint0_linear)"/>
<path fill-rule="evenodd" clip-rule="evenodd" d="M104.212 58.5103C104.212 53.2578 108.479 49 113.742 49C149.415 49 178.334 77.8587 178.334 113.458C178.334 118.71 174.067 122.968 168.804 122.968C163.541 122.968 159.274 118.71 159.274 113.458C159.274 88.3635 138.889 68.0205 113.742 68.0205C108.479 68.0205 104.212 63.7625 104.212 58.5103Z" fill="white"/>
<path fill-rule="evenodd" clip-rule="evenodd" d="M197.475 103.951C202.738 103.951 207.005 108.209 207.005 113.461C207.005 149.06 178.086 177.919 142.413 177.919C137.149 177.919 132.882 173.661 132.882 168.409C132.882 163.157 137.149 158.899 142.413 158.899C167.559 158.899 187.945 138.556 187.945 113.461C187.945 108.209 192.211 103.951 197.475 103.951Z" fill="white"/>
<path fill-rule="evenodd" clip-rule="evenodd" d="M151.943 197.491C151.943 202.744 147.676 207.001 142.413 207.001C106.739 207.001 77.8206 178.142 77.8206 142.543C77.8206 137.291 82.0874 133.033 87.3506 133.033C92.6138 133.033 96.8806 137.291 96.8806 142.543C96.8806 167.638 117.266 187.981 142.413 187.981C147.676 187.981 151.943 192.239 151.943 197.491Z" fill="white"/>
<path fill-rule="evenodd" clip-rule="evenodd" d="M58.5298 152.058C53.2666 152.058 49 147.8 49 142.548C48.9998 106.949 77.9186 78.0898 113.592 78.0898C118.855 78.0898 123.122 82.3478 123.122 87.6001C123.122 92.8526 118.855 97.1104 113.592 97.1104C88.4453 97.1104 68.0598 117.454 68.0598 142.548C68.0598 147.8 63.7932 152.058 58.5298 152.058Z" fill="white"/>
<defs>
<linearGradient id="paint0_linear" x1="128" y1="0" x2="128" y2="256" gradientUnits="userSpaceOnUse">
<stop stop-color="#0DBD8B"/>
<stop offset="1" stop-color="#0DBD8B"/>
</linearGradient>
</defs>
</svg>
