<svg width="256" height="256" viewBox="0 0 256 256" fill="none" xmlns="http://www.w3.org/2000/svg">
<rect width="256" height="256" fill="url(#paint0_linear)"/>
<g filter="url(#filter0_i)">
<path d="M176.909 143.133C174.47 137.834 169.936 133.535 163.307 130.236C173.294 127.742 179.007 120.913 180.448 109.75C181.002 105.709 180.7 102.026 179.541 98.6963C178.382 95.3656 176.451 92.4573 173.739 89.9684C171.03 87.4779 167.951 85.347 164.509 83.5737C161.067 81.8001 157.024 80.156 152.384 78.643L157.617 55.9771L143.767 52.7796L138.679 74.8157C136.281 74.262 132.61 73.4775 127.666 72.4625L132.795 50.2465L118.943 47.0485L113.71 69.7144C111.717 69.3176 108.802 68.6768 104.964 67.7909L85.9178 63.2981L82.5123 78.0491L92.4953 80.3539C97.0525 81.406 99.2501 84.0612 99.0882 88.318L93.1285 114.132C93.729 114.271 94.201 114.412 94.5473 114.555L93.1076 114.223L84.7604 150.379C83.5753 153.326 81.4834 154.454 78.485 153.762L68.5026 151.457L61.9138 167.274L79.9027 171.427C81.0422 171.69 82.6866 172.085 84.8399 172.611C86.9912 173.14 88.606 173.528 89.6856 173.778L84.3906 196.713L98.2448 199.911L103.478 177.246C105.981 177.888 109.632 178.762 114.429 179.87L109.217 202.444L123.067 205.642L128.362 182.707C133.336 183.603 137.801 184.162 141.76 184.379C145.72 184.596 149.602 184.405 153.405 183.798C157.206 183.192 160.519 182.108 163.342 180.549C166.166 178.993 168.714 176.769 170.993 173.884C173.268 170.998 175.109 167.476 176.51 163.314C179.217 155.162 179.348 148.434 176.909 143.133ZM124.198 88.7122C124.618 88.8092 125.805 89.0675 127.761 89.4871C129.718 89.9064 131.343 90.2504 132.639 90.5178C133.936 90.7858 135.657 91.2623 137.805 91.9476C139.952 92.6328 141.74 93.2988 143.17 93.944C144.599 94.5893 146.135 95.4652 147.773 96.5698C149.415 97.6744 150.659 98.8463 151.509 100.084C152.361 101.323 152.984 102.794 153.379 104.496C153.777 106.198 153.747 108.038 153.29 110.017C152.902 111.696 152.28 113.163 151.422 114.418C150.566 115.673 149.488 116.64 148.195 117.321C146.902 118.001 145.604 118.555 144.305 118.981C143.008 119.407 141.424 119.626 139.559 119.637C137.694 119.649 136.074 119.622 134.7 119.558C133.326 119.493 131.639 119.278 129.639 118.91C127.639 118.543 126.126 118.258 125.1 118.052C124.073 117.846 122.68 117.525 120.917 117.086C119.154 116.648 118.125 116.394 117.824 116.325L124.199 88.7121L124.198 88.7119L124.198 88.7122ZM147.88 158.695C146.99 159.943 145.98 160.974 144.845 161.786C143.71 162.596 142.317 163.223 140.669 163.662C139.021 164.104 137.45 164.403 135.962 164.565C134.471 164.728 132.71 164.761 130.679 164.673C128.645 164.582 126.879 164.441 125.373 164.253C123.87 164.064 122.089 163.778 120.029 163.398C117.971 163.016 116.37 162.695 115.231 162.432C114.092 162.169 112.656 161.82 110.924 161.389C109.191 160.96 108.086 160.689 107.606 160.578L114.625 130.176C115.104 130.286 116.535 130.586 118.918 131.072C121.301 131.558 123.24 131.976 124.74 132.322C126.239 132.668 128.288 133.235 130.885 134.025C133.481 134.813 135.637 135.594 137.355 136.369C139.07 137.144 140.904 138.151 142.861 139.394C144.816 140.634 146.33 141.946 147.401 143.33C148.47 144.716 149.261 146.349 149.772 148.236C150.286 150.123 150.293 152.146 149.794 154.305C149.406 155.985 148.769 157.446 147.88 158.695Z" fill="black" fill-opacity="0.4"/>
</g>
<defs>
<filter id="filter0_i" x="61.9138" y="47.0485" width="118.803" height="162.594" filterUnits="userSpaceOnUse" color-interpolation-filters="sRGB">
<feFlood flood-opacity="0" result="BackgroundImageFix"/>
<feBlend mode="normal" in="SourceGraphic" in2="BackgroundImageFix" result="shape"/>
<feColorMatrix in="SourceAlpha" type="matrix" values="0 0 0 0 0 0 0 0 0 0 0 0 0 0 0 0 0 0 127 0" result="hardAlpha"/>
<feOffset dy="4"/>
<feGaussianBlur stdDeviation="2"/>
<feComposite in2="hardAlpha" operator="arithmetic" k2="-1" k3="1"/>
<feColorMatrix type="matrix" values="0 0 0 0 0 0 0 0 0 0 0 0 0 0 0 0 0 0 0.25 0"/>
<feBlend mode="normal" in2="shape" result="effect1_innerShadow"/>
</filter>
<linearGradient id="paint0_linear" x1="0" y1="0" x2="256" y2="256" gradientUnits="userSpaceOnUse">
<stop stop-color="#FFBE40"/>
<stop offset="1" stop-color="#FF9C40"/>
</linearGradient>
</defs>
</svg>
