<svg width="92" height="184" viewBox="0 0 92 184" fill="none" xmlns="http://www.w3.org/2000/svg">
<mask id="mask0" mask-type="alpha" maskUnits="userSpaceOnUse" x="0" y="0" width="92" height="184">
<rect width="92" height="184" fill="#C4C4C4"/>
</mask>
<g mask="url(#mask0)">
<path d="M120.105 76.96C120.105 72.4448 114.856 69.9256 111.334 72.7603C100.958 81.1129 100.661 86.6092 92.0018 86.6092C83.3391 86.6092 83.1374 81.1866 72.6696 72.7603C69.152 69.9295 63.899 72.438 63.899 76.96C63.899 94.7695 51.2167 98.207 51.2167 118.834C51.2167 120.573 52.0558 122.206 53.47 123.218C53.6626 123.356 54.2494 123.776 54.3242 125.349C55.4857 149.548 66.903 159.817 57.8195 169.199C55.26 171.843 56.0467 176.227 59.3695 177.814C67.6045 181.745 79.4988 184 92.0018 184C104.513 184 116.408 181.745 124.636 177.813C127.954 176.227 128.745 171.844 126.184 169.199C117.105 159.822 128.518 149.535 129.68 125.347C129.754 123.776 130.341 123.356 130.534 123.218C131.948 122.206 132.787 120.573 132.787 118.834C132.787 98.24 120.105 94.7358 120.105 76.96Z" fill="#F7F7F7"/>
<path d="M144.544 46.5606C143.18 16.9442 121.395 0 92.0018 0C62.6042 0 40.8239 16.9481 39.4601 46.5613C37.8084 82.4978 12.9339 98.6833 28.3245 132.765C30.6098 137.825 45.7291 140.804 44.4878 128.353C44.0159 123.609 51.1254 121.533 53.4603 123.211C57.0185 125.771 61.998 123.221 61.998 118.835C61.998 101.933 74.6803 98.3157 74.6803 76.9605C74.6803 75.3336 73.9454 73.7933 72.6807 72.7698C70.9266 71.3503 68.8038 69.7576 66.3683 68.0333C67.9927 67.6301 69.681 67.2531 71.3859 66.9117C75.601 66.0686 77.1762 60.8569 74.1448 57.8188C72.0637 55.7326 70.8213 52.1985 70.8213 48.365C70.8213 43.1807 73.5846 37.3825 77.2825 37.3825C80.9805 37.3825 83.7437 43.1807 83.7437 48.365C83.7437 50.8379 83.2324 53.1796 82.2843 55.1209C77.726 58.1598 80.1184 65.3516 85.6251 64.9887C89.8158 64.7127 93.8932 64.6933 98.3793 64.9887C103.885 65.3491 106.278 58.1598 101.72 55.1209C100.772 53.1796 100.261 50.8379 100.261 48.365C100.261 43.1807 103.024 37.3825 106.722 37.3825C110.42 37.3825 113.183 43.1807 113.183 48.365C113.183 52.1985 111.941 55.7326 109.86 57.8188C106.824 60.8616 108.41 66.0697 112.619 66.9117C114.323 67.2527 116.01 67.6297 117.636 68.0333C115.203 69.7561 113.079 71.35 111.324 72.7698C110.059 73.7933 109.324 75.3333 109.324 76.9605C109.324 98.4055 122.007 101.857 122.007 118.835C122.007 123.217 126.983 125.773 130.544 123.211C132.883 121.53 139.988 123.611 139.517 128.353C138.274 140.825 153.413 137.786 155.68 132.765C171.075 98.6714 146.196 82.5132 144.544 46.5606Z" fill="#294A4A"/>
<path d="M106.722 26.6011C100.418 26.6011 95.0062 30.6667 92.0018 36.8778C88.9975 30.6667 83.586 26.6011 77.2818 26.6011C67.8964 26.6011 60.0394 35.9826 60.0394 48.3648C60.0394 55.0887 62.3983 61.3099 66.5117 65.433C67.7807 66.7048 69.6052 67.2661 71.3823 66.9125C76.3748 65.9264 80.5331 65.3248 86.2784 64.9457C87.9351 64.8368 89.4495 63.9703 90.3832 62.5971C90.9862 61.7099 91.5246 60.7629 92.0022 59.7717C92.4798 60.7629 93.0181 61.7099 93.6212 62.5971C94.5548 63.9703 96.0689 64.8368 97.726 64.9457C103.506 65.327 107.557 65.9271 112.622 66.9125C114.398 67.2661 116.224 66.7052 117.493 65.433C121.606 61.3099 123.965 55.0887 123.965 48.3648C123.964 35.8898 116.04 26.6011 106.722 26.6011Z" fill="#F7F7F7"/>
<path d="M65.0932 124.835C64.5229 112.838 51.8341 108.628 41.841 114.394C37.5554 116.866 34.7836 120.678 33.9484 125.042C29.4217 123.337 21.6279 121.066 15.4211 127.274C9.24133 133.454 11.3908 141.022 13.1855 145.799C2.5548 147.818 -2.82684 161.001 1.49967 169.771C3.62645 174.082 7.81066 176.697 12.9788 176.946C28.9002 177.714 39.013 183.993 49.3954 183.993C55.1195 183.993 60.5101 181.976 65.5655 176.698C80.0982 161.689 66.2037 147.985 65.0932 124.835Z" fill="#FFD664"/>
<path d="M120.246 57.5724C101.424 52.8998 83.2237 52.7403 63.7603 57.5717C54.8065 59.7883 52.6121 71.5126 60.1375 76.8317C67.22 81.8443 69.1976 83.9186 72.5786 87.5321C77.1136 92.379 81.8031 97.3905 92.0018 97.3905C102.201 97.3905 106.89 92.379 111.425 87.5321C114.723 84.007 116.718 81.891 123.866 76.8317C131.392 71.5083 129.196 59.788 120.246 57.5724Z" fill="#FFD664"/>
<path d="M76.4894 49.7933C79.6144 49.7933 82.1477 47.2599 82.1477 44.1349C82.1477 41.0099 79.6144 38.4766 76.4894 38.4766C73.3643 38.4766 70.831 41.0099 70.831 44.1349C70.831 47.2599 73.3643 49.7933 76.4894 49.7933Z" fill="#294A4A"/>
</g>
</svg>
