<svg width="26" height="24" viewBox="0 0 26 24" fill="none" xmlns="http://www.w3.org/2000/svg">
<path d="M1.6373 14.6498C1.57025 15.0107 1.52344 15.3762 1.52344 15.75C1.52344 20.299 6.75034 24 13.0508 24C19.3512 24 24.4766 20.299 24.4766 15.75C24.4766 15.3762 24.4297 15.0107 24.3627 14.6498C25.3506 14.1428 26 13.1414 26 12C26 10.3455 24.6335 9 22.9531 9C22.1853 9 21.4638 9.2834 20.9106 9.77754C18.996 8.46328 16.4557 7.62734 13.6471 7.52188L15.1046 1.95488L18.3917 3.0873C18.4399 4.70078 19.7797 6 21.4297 6C23.11 6 24.4766 4.65449 24.4766 3C24.4766 1.34551 23.11 0 21.4297 0C20.2581 0 19.2509 0.661328 18.7413 1.61816L14.0438 0.00078125L12.0697 7.53594C9.41318 7.7 6.91656 8.52324 5.08943 9.77754C4.53619 9.2834 3.81474 9 3.04688 9C1.36653 9 0 10.3455 0 12C0 13.1414 0.649444 14.1428 1.6373 14.6498V14.6498ZM17.6211 12C18.8811 12 19.9062 13.0094 19.9062 14.25C19.9062 15.4906 18.8811 16.5 17.6211 16.5C16.3611 16.5 15.3359 15.4906 15.3359 14.25C15.3359 13.0094 16.3611 12 17.6211 12V12ZM17.2954 18.6256L17.9468 19.9805C16.5172 20.6477 14.8242 21 13.0508 21C11.2774 21 9.4828 20.6477 8.05319 19.9805L8.70462 18.6254C11.1596 19.7695 14.8404 19.7695 17.2954 18.6256ZM8.37891 12C9.63892 12 10.6641 13.0094 10.6641 14.25C10.6641 15.4906 9.63892 16.5 8.37891 16.5C7.1189 16.5 6.09375 15.4906 6.09375 14.25C6.09375 13.0094 7.1189 12 8.37891 12V12Z" fill="#B3B7C0"/>
</svg>
