<svg width="100" height="100" viewBox="0 0 100 100" fill="none" xmlns="http://www.w3.org/2000/svg">
<rect width="100" height="100" rx="20" fill="url(#paint0_linear)"/>
<path fill-rule="evenodd" clip-rule="evenodd" d="M50.4969 16C32.0004 16 17 31.3779 17 50.349C17 65.5244 26.5979 78.3974 39.9098 82.9393C41.5859 83.2556 42.1967 82.1948 42.1967 81.2841C42.1967 80.47 42.1679 78.3087 42.1515 75.4432C32.8333 77.5181 30.8672 70.838 30.8672 70.838C29.3434 66.8697 27.147 65.8132 27.147 65.8132C24.1054 63.6837 27.3773 63.7257 27.3773 63.7257C30.7397 63.9682 32.5084 67.2661 32.5084 67.2661C35.4965 72.5145 40.3499 70.9983 42.2584 70.119C42.5628 67.9007 43.4286 66.3868 44.3849 65.5287C36.9464 64.662 29.1254 61.7141 29.1254 48.5523C29.1254 44.8032 30.4313 41.7353 32.5742 39.3357C32.2287 38.467 31.0791 34.9731 32.9032 30.2456C32.9032 30.2456 35.7145 29.3221 42.1145 33.767C44.7859 33.0036 47.6528 32.6241 50.5011 32.6094C53.3472 32.6241 56.212 33.0036 58.8876 33.767C65.2836 29.3221 68.0906 30.2456 68.0906 30.2456C69.9188 34.9731 68.7692 38.467 68.4259 39.3357C70.5729 41.7353 71.8685 44.8032 71.8685 48.5523C71.8685 61.7479 64.0351 64.6514 56.5741 65.5012C57.7751 66.5617 58.8465 68.6578 58.8465 71.8627C58.8465 76.4533 58.8052 80.158 58.8052 81.2841C58.8052 82.2034 59.4099 83.2722 61.1086 82.937C74.4103 78.3845 84 65.5201 84 50.349C84 31.3779 68.9995 16 50.4969 16Z" fill="white"/>
<defs>
<linearGradient id="paint0_linear" x1="0" y1="0" x2="100" y2="100" gradientUnits="userSpaceOnUse">
<stop stop-color="#7A8A93"/>
<stop offset="1" stop-color="#25272D"/>
</linearGradient>
</defs>
</svg>
