<svg width="752" height="139" viewBox="0 0 752 139" fill="none" xmlns="http://www.w3.org/2000/svg">
<path d="M187.627 112.727H12.3721V7.56921C12.3721 3.3891 15.7608 0 19.9413 0H180.058C184.238 0 187.627 3.3887 187.627 7.56921V112.727Z" fill="#2B3838"/>
<path d="M12.3726 106.761H187.627V127.249H12.3726V106.761Z" fill="#7CA1B1"/>
<path d="M180.016 106.761H187.627V127.249H180.016V106.761Z" fill="#678D98"/>
<path d="M187.626 7.57V106.762H179.972V7.57C179.972 3.3891 176.583 0 172.406 0H180.061C184.238 0 187.626 3.3891 187.626 7.57Z" fill="#212D2D"/>
<path d="M26.5439 106.762V20.016C26.5439 18.2034 28.0135 16.7339 29.826 16.7339H170.174C171.987 16.7339 173.456 18.2034 173.456 20.016V106.762H26.5439Z" fill="#D4F2F6"/>
<path d="M173.455 20.0163V106.762H163.911V20.0163C163.911 18.2034 162.444 16.7358 160.631 16.7358H170.175C171.988 16.7358 173.455 18.203 173.455 20.0163Z" fill="#A6E7F0"/>
<path d="M112.648 121.896L109.694 125.951C109.1 126.767 108.151 127.249 107.142 127.249H92.8579C91.8489 127.249 90.9005 126.767 90.3064 125.951L87.3524 121.896C86.7583 121.081 85.8098 120.598 84.8008 120.598H2.5094C1.12345 120.598 0 121.722 0 123.108V132.065C0 135.841 3.06136 138.903 6.83796 138.903H193.162C196.939 138.903 200 135.841 200 132.065V123.108C200 121.722 198.877 120.598 197.491 120.598H115.2C114.191 120.598 113.242 121.081 112.648 121.896Z" fill="#537983"/>
<path d="M200 123.107V132.064C200 135.839 196.937 138.902 193.162 138.902H183.916C187.69 138.902 190.754 135.839 190.754 132.064V123.107C190.754 121.721 189.632 120.599 188.245 120.599H197.491C198.878 120.599 200 121.721 200 123.107Z" fill="#426970"/>
<path d="M113.944 73.5923C113.253 73.5923 112.559 73.3489 112.001 72.854C110.79 71.7802 110.68 69.9286 111.753 68.7185L138.59 38.4665C139.663 37.2563 141.515 37.145 142.726 38.2192C143.936 39.2931 144.047 41.1446 142.973 42.3548L116.137 72.6067C115.558 73.2591 114.753 73.5923 113.944 73.5923Z" fill="#8CD7DD"/>
<path d="M129.577 72.6665C128.886 72.6665 128.192 72.4232 127.634 71.9283C126.423 70.8544 126.313 69.0029 127.387 67.7927L134.656 59.5982C135.729 58.388 137.581 58.2771 138.792 59.3509C140.002 60.4247 140.113 62.2763 139.039 63.4865L131.77 71.681C131.191 72.3337 130.386 72.6665 129.577 72.6665Z" fill="#8CD7DD"/>
<path d="M145.045 55.2294C144.354 55.2294 143.66 54.986 143.102 54.4915C141.892 53.4177 141.781 51.5661 142.855 50.3556L144.825 48.1349C145.898 46.9247 147.75 46.8138 148.96 47.8872C150.171 48.961 150.282 50.8126 149.208 52.0231L147.238 54.2438C146.659 54.8966 145.854 55.2294 145.045 55.2294Z" fill="#8CD7DD"/>
<path d="M714.366 105.859L717.057 112.774C717.23 113.218 717.658 113.511 718.135 113.511H737.248V35.0002L643.937 35.0002C640.106 35.0002 637 38.1062 637 41.9376V91.2676C637 95.099 640.106 98.205 643.937 98.205H674.33C674.754 98.205 675.144 98.4366 675.346 98.8087L683.014 112.907C683.216 113.279 683.606 113.511 684.03 113.511H698.245C700.161 113.511 701.714 111.958 701.714 110.042V106.278C701.714 105.639 702.232 105.122 702.87 105.122H713.288C713.765 105.122 714.193 105.415 714.366 105.859Z" fill="#454D58"/>
<path d="M663.517 77.731L665.599 75.1778L663.517 72.6247H650.229C649.59 72.6247 649.073 73.1424 649.073 73.7809V76.5746C649.073 77.213 649.59 77.7307 650.229 77.7307H663.517V77.731Z" fill="#EACC73"/>
<path d="M667.679 76.5746V73.7809C667.679 73.1424 667.162 72.6247 666.523 72.6247H663.517V77.731H666.523C667.162 77.731 667.679 77.2133 667.679 76.5746Z" fill="#E3BD57"/>
<path d="M665.599 84.5714V83.2806L663.517 81.1994H650.229C649.59 81.1994 649.073 81.7171 649.073 82.3556V84.5714C649.073 86.4869 650.626 88.04 652.541 88.04H660.049C661.965 88.0398 665.599 88.0398 665.599 84.5714Z" fill="#EACC73"/>
<path d="M663.518 81.1994V84.5714C663.518 86.4871 661.965 88.04 660.049 88.04H664.211C666.127 88.04 667.68 86.4871 667.68 84.5714V82.3556C667.68 81.7171 667.162 81.1994 666.524 81.1994H663.518Z" fill="#E3BD57"/>
<path d="M663.517 69.1558L665.599 66.6026L663.517 64.0495H650.229C649.59 64.0495 649.073 64.5672 649.073 65.2057V67.9994C649.073 68.6381 649.59 69.1555 650.229 69.1555H663.517V69.1558Z" fill="#EACC73"/>
<path d="M667.679 67.9994V65.2057C667.679 64.5672 667.162 64.0495 666.523 64.0495H663.517V69.1558H666.523C667.162 69.1558 667.679 68.6381 667.679 67.9994Z" fill="#E3BD57"/>
<path d="M663.517 60.5806L665.599 58.0274L663.517 55.4743H650.229C649.59 55.4743 649.073 55.992 649.073 56.6305V59.4242C649.073 60.0626 649.59 60.5803 650.229 60.5803H663.517V60.5806Z" fill="#EACC73"/>
<path d="M667.679 59.4242V56.6305C667.679 55.992 667.162 55.4743 666.523 55.4743H663.517V60.5806H666.523C667.162 60.5803 667.679 60.0629 667.679 59.4242Z" fill="#E3BD57"/>
<path d="M665.599 48.6335V49.9243L663.517 52.0054H650.229C649.59 52.0054 649.073 51.4877 649.073 50.8492V48.6335C649.073 46.7179 650.626 45.1648 652.541 45.1648H660.049C661.965 45.1648 665.599 45.1648 665.599 48.6335Z" fill="#EACC73"/>
<path d="M663.518 52.0059V48.634C663.518 46.7182 661.965 45.1653 660.049 45.1653H664.211C666.127 45.1653 667.68 46.7182 667.68 48.634V50.8497C667.68 51.4882 667.162 52.0059 666.524 52.0059H663.518Z" fill="#E3BD57"/>
<path d="M731.053 74.2555C731.053 89.2402 733.706 102.492 737.248 113.511H741.41V35.0002H737.248C733.706 46.0194 731.053 59.2707 731.053 74.2555Z" fill="#3C434C"/>
<path d="M741.41 35C741.407 35.012 741.403 35.0242 741.399 35.0361C741.403 35.0242 741.407 35.012 741.41 35Z" fill="#DAD8DB"/>
<path d="M749.616 106.573V41.9376C749.616 38.3764 744.851 35.0473 741.395 35.0473C737.862 46.0571 735.216 59.292 735.216 74.2555C735.216 89.2402 737.869 102.492 741.41 113.511C741.405 113.495 741.401 113.479 741.396 113.464C744.845 113.464 749.616 110.135 749.616 106.573Z" fill="#DF667C"/>
<path d="M741.411 35.0003H740.598C740.868 35.0003 741.134 35.0173 741.396 35.0474C741.401 35.0319 741.405 35.016 741.411 35.0003Z" fill="#3C434C"/>
<path d="M741.411 113.511C741.406 113.495 741.401 113.479 741.396 113.464C741.134 113.494 740.868 113.511 740.598 113.511H741.411Z" fill="#3C434C"/>
<path d="M741.395 35.047C744.85 35.4431 747.534 38.3759 747.534 41.9373V106.573C747.534 110.134 744.85 113.067 741.395 113.463C741.4 113.479 741.405 113.495 741.41 113.51H744.759C748.591 113.51 751.697 110.404 751.697 106.573V41.9371C751.697 38.1057 748.591 34.9997 744.759 34.9997H741.41C741.405 35.0156 741.4 35.0315 741.395 35.047Z" fill="#DC4857"/>
<path d="M381.517 34.1206C381.517 31.3592 383.756 29.1206 386.517 29.1206H485C487.761 29.1206 490 31.3592 490 34.1206V88.293H381.517V34.1206Z" fill="#777777"/>
<path d="M381.517 88.2935H490V112.88C490 115.641 487.761 117.88 485 117.88H386.517C383.756 117.88 381.517 115.641 381.517 112.88V88.2935Z" fill="#ABABAB"/>
<path d="M347 51.3105H381.517V73.5002H347V51.3105Z" fill="#ABABAB"/>
<path d="M347 73.5H381.517V83.3621H347V73.5Z" fill="#777777"/>
<path d="M398.776 95.6895H433.293V100.62H398.776V95.6895Z" fill="#454545"/>
<path d="M398.776 105.551H425.897V110.482H398.776V105.551Z" fill="#454545"/>
<path d="M440.69 95.6895H482.604V100.62H440.69V95.6895Z" fill="#454545"/>
<path d="M430.828 105.551H482.603V110.482H430.828V105.551Z" fill="#454545"/>
<path d="M354.396 63.6377H359.328V68.5687H354.396V63.6377Z" fill="#5B5B5B"/>
<path d="M354.396 56.2412H359.328V61.1722H354.396V56.2412Z" fill="#5B5B5B"/>
<path d="M388.914 95.6895H393.845V100.62H388.914V95.6895Z" fill="#FF5566"/>
<path d="M388.914 105.552H393.845V110.483H388.914V105.552Z" fill="#03AA6F"/>
<path d="M419.242 55.1953C422.148 55.1953 424.227 53.4297 424.359 50.75H421.602C421.422 52.0703 420.508 52.8984 419.25 52.8984C417.672 52.8984 416.688 51.5625 416.688 49.3516C416.688 47.1641 417.68 45.8281 419.242 45.8281C420.5 45.8281 421.445 46.7031 421.586 48.0312H424.344C424.258 45.3672 422.094 43.5312 419.242 43.5312C415.883 43.5312 413.766 45.6797 413.766 49.3594C413.766 53.0469 415.867 55.1953 419.242 55.1953Z" fill="#ABABAB"/>
<path d="M432.523 55H435.57L431.781 43.7266H428.273L424.484 55H427.406L428.125 52.5234H431.812L432.523 55ZM429.938 46.1172H430L431.25 50.4609H428.68L429.938 46.1172Z" fill="#ABABAB"/>
<path d="M439.523 45.8906H441.195C442.219 45.8906 442.883 46.5391 442.883 47.5C442.883 48.4766 442.258 49.0938 441.203 49.0938H439.523V45.8906ZM439.523 51.0547H440.984L442.922 55H446.141L443.883 50.6328C445.117 50.0938 445.812 48.8281 445.812 47.4453C445.812 45.1172 444.297 43.7266 441.484 43.7266H436.656V55H439.523V51.0547Z" fill="#ABABAB"/>
<path d="M447.25 43.7266V55H451.828C455.227 55 457.234 52.8984 457.234 49.2969C457.234 45.7031 455.234 43.7266 451.828 43.7266H447.25ZM450.117 46.0391H451.453C453.266 46.0391 454.32 47.1875 454.32 49.3047C454.32 51.5547 453.32 52.6875 451.453 52.6875H450.117V46.0391Z" fill="#ABABAB"/>
<path d="M407.82 64.8906H409.492C410.516 64.8906 411.18 65.5391 411.18 66.5C411.18 67.4766 410.555 68.0938 409.5 68.0938H407.82V64.8906ZM407.82 70.0547H409.281L411.219 74H414.438L412.18 69.6328C413.414 69.0938 414.109 67.8281 414.109 66.4453C414.109 64.1172 412.594 62.7266 409.781 62.7266H404.953V74H407.82V70.0547Z" fill="#ABABAB"/>
<path d="M423.273 71.6875H418.414V69.3906H422.984V67.2812H418.414V65.0391H423.273V62.7266H415.547V74H423.273V71.6875Z" fill="#ABABAB"/>
<path d="M432.305 74H435.352L431.562 62.7266H428.055L424.266 74H427.188L427.906 71.5234H431.594L432.305 74ZM429.719 65.1172H429.781L431.031 69.4609H428.461L429.719 65.1172Z" fill="#ABABAB"/>
<path d="M436.438 62.7266V74H441.016C444.414 74 446.422 71.8984 446.422 68.2969C446.422 64.7031 444.422 62.7266 441.016 62.7266H436.438ZM439.305 65.0391H440.641C442.453 65.0391 443.508 66.1875 443.508 68.3047C443.508 70.5547 442.508 71.6875 440.641 71.6875H439.305V65.0391Z" fill="#ABABAB"/>
<path d="M455.539 71.6875H450.68V69.3906H455.25V67.2812H450.68V65.0391H455.539V62.7266H447.812V74H455.539V71.6875Z" fill="#ABABAB"/>
<path d="M460.023 64.8906H461.695C462.719 64.8906 463.383 65.5391 463.383 66.5C463.383 67.4766 462.758 68.0938 461.703 68.0938H460.023V64.8906ZM460.023 70.0547H461.484L463.422 74H466.641L464.383 69.6328C465.617 69.0938 466.312 67.8281 466.312 66.4453C466.312 64.1172 464.797 62.7266 461.984 62.7266H457.156V74H460.023V70.0547Z" fill="#ABABAB"/>
<path d="M557.949 91.6884C558.675 92.4405 559.885 92.4405 560.637 91.6884C561.364 90.9617 561.364 89.7523 560.638 89.0274L547.011 75.3971L584.076 76.1502C585.125 76.1485 586.466 74.7731 586.467 73.7246C586.467 72.6762 585.09 71.3345 584.041 71.3345L547.012 71.6046L560.646 57.9997C561.373 57.2476 561.374 56.0365 560.647 55.3116C559.895 54.5595 558.684 54.5595 557.959 55.3116L541.097 72.1686C540.345 72.8953 540.345 74.1047 541.097 74.8296L557.949 91.6884Z" fill="#85878C"/>
<path d="M267.949 89.6884C268.675 90.4405 269.885 90.4405 270.637 89.6884C271.364 88.9617 271.364 87.7523 270.638 87.0274L257.011 73.3971L294.076 74.1502C295.125 74.1485 296.466 72.7731 296.467 71.7246C296.467 70.6762 295.09 69.3345 294.041 69.3345L257.012 69.6046L270.646 55.9997C271.373 55.2476 271.374 54.0365 270.647 53.3116C269.895 52.5595 268.684 52.5595 267.959 53.3116L251.097 70.1686C250.345 70.8953 250.345 72.1047 251.097 72.8296L267.949 89.6884Z" fill="#85878C"/>
</svg>
