<svg width="23" height="20" viewBox="0 0 23 20" fill="none" xmlns="http://www.w3.org/2000/svg">
<path d="M23 2.36772C22.1538 2.76969 21.2443 3.0404 20.2898 3.16243C21.2645 2.53794 22.0129 1.5484 22.3646 0.36916C21.4532 0.9475 20.4432 1.36792 19.3679 1.59454C18.5083 0.61321 17.2807 0 15.9237 0C12.8771 0 10.6385 3.04143 11.3265 6.19873C7.406 5.98852 3.92917 3.97867 1.60137 0.92391C0.365125 3.19319 0.96025 6.16181 3.06092 7.66509C2.2885 7.63843 1.56017 7.41181 0.924792 7.03343C0.873042 9.3724 2.43992 11.5607 4.70925 12.0478C4.04513 12.2406 3.31775 12.2857 2.57792 12.1339C3.17783 14.1397 4.92008 15.5989 6.98625 15.6399C5.0025 17.3041 2.50317 18.0476 0 17.7317C2.08821 19.1643 4.56933 20 7.2335 20C15.9946 20 20.9444 12.0826 20.6454 4.98154C21.5673 4.26887 22.3675 3.37982 23 2.36772Z" fill="#B3B7C0"/>
</svg>
